<svg width="298" height="565" viewBox="0 0 298 565" fill="none" xmlns="http://www.w3.org/2000/svg">
<path d="M277.453 295.738C281.166 293.594 285.741 293.594 289.453 295.738L326.266 316.991C329.979 319.135 332.266 323.096 332.266 327.383V369.891C332.266 374.178 329.979 378.139 326.266 380.283L289.453 401.537C285.741 403.68 281.166 403.68 277.453 401.537L240.641 380.283C236.928 378.139 234.641 374.178 234.641 369.891V327.383C234.641 323.096 236.928 319.135 240.641 316.991L277.453 295.738Z" fill="#150259"/>
<path d="M277.703 296.171C281.262 294.116 285.645 294.116 289.203 296.171L326.016 317.424C329.574 319.478 331.766 323.275 331.766 327.383V369.891C331.766 373.999 329.574 377.796 326.016 379.85L289.203 401.104C285.645 403.158 281.262 403.158 277.703 401.104L240.891 379.85C237.333 377.796 235.141 373.999 235.141 369.891V327.383C235.141 323.275 237.333 319.478 240.891 317.424L277.703 296.171Z" stroke="white" stroke-opacity="0.12"/>
<g filter="url(#filter0_d_3294_94723)">
<path d="M163.453 295.738C167.166 293.594 171.741 293.594 175.453 295.738L212.266 316.991C215.979 319.135 218.266 323.096 218.266 327.383V369.891C218.266 374.178 215.979 378.139 212.266 380.283L175.453 401.537C171.741 403.68 167.166 403.68 163.453 401.537L126.641 380.283C122.928 378.139 120.641 374.178 120.641 369.891V327.383C120.641 323.096 122.928 319.135 126.641 316.991L163.453 295.738Z" fill="#150259"/>
<path d="M163.703 296.171C167.262 294.116 171.645 294.116 175.203 296.171L212.016 317.424C215.574 319.478 217.766 323.275 217.766 327.383V369.891C217.766 373.999 215.574 377.796 212.016 379.85L175.203 401.104C171.645 403.158 167.262 403.158 163.703 401.104L126.891 379.85C123.333 377.796 121.141 373.999 121.141 369.891V327.383C121.141 323.275 123.333 319.478 126.891 317.424L163.703 296.171Z" stroke="white" stroke-opacity="0.2"/>
</g>
<path d="M50.4535 295.738C54.1663 293.594 58.7407 293.594 62.4535 295.738L99.2658 316.991C102.979 319.135 105.266 323.096 105.266 327.383V369.891C105.266 374.178 102.979 378.139 99.2658 380.283L62.4535 401.537C58.7407 403.68 54.1663 403.68 50.4535 401.537L13.6411 380.283C9.92833 378.139 7.64114 374.178 7.64114 369.891V327.383C7.64114 323.096 9.92833 319.135 13.6411 316.991L50.4535 295.738Z" fill="#150259"/>
<path d="M50.7035 296.171C54.2616 294.116 58.6454 294.116 62.2035 296.171L99.0158 317.424C102.574 319.478 104.766 323.275 104.766 327.383V369.891C104.766 373.999 102.574 377.796 99.0158 379.85L62.2035 401.104C58.6454 403.158 54.2616 403.158 50.7035 401.104L13.8911 379.85C10.333 377.796 8.14114 373.999 8.14114 369.891V327.383C8.14114 323.275 10.333 319.478 13.8911 317.424L50.7035 296.171Z" stroke="white" stroke-opacity="0.12"/>
<path d="M219.453 392.738C223.166 390.594 227.741 390.594 231.453 392.738L268.266 413.991C271.979 416.135 274.266 420.096 274.266 424.383V466.891C274.266 471.178 271.979 475.139 268.266 477.283L231.453 498.537C227.741 500.68 223.166 500.68 219.453 498.537L182.641 477.283C178.928 475.139 176.641 471.178 176.641 466.891V424.383C176.641 420.096 178.928 416.135 182.641 413.991L219.453 392.738Z" fill="#150259"/>
<path d="M219.703 393.171C223.262 391.116 227.645 391.116 231.203 393.171L268.016 414.424C271.574 416.478 273.766 420.275 273.766 424.383V466.891C273.766 470.999 271.574 474.796 268.016 476.85L231.203 498.104C227.645 500.158 223.262 500.158 219.703 498.104L182.891 476.85C179.333 474.796 177.141 470.999 177.141 466.891V424.383C177.141 420.275 179.333 416.478 182.891 414.424L219.703 393.171Z" stroke="white" stroke-opacity="0.12"/>
<g filter="url(#filter1_d_3294_94723)">
<path d="M106.453 392.738C110.166 390.594 114.741 390.594 118.453 392.738L155.266 413.991C158.979 416.135 161.266 420.096 161.266 424.383V466.891C161.266 471.178 158.979 475.139 155.266 477.283L118.453 498.537C114.741 500.68 110.166 500.68 106.453 498.537L69.6411 477.283C65.9283 475.139 63.6411 471.178 63.6411 466.891V424.383C63.6411 420.096 65.9283 416.135 69.6411 413.991L106.453 392.738Z" fill="#150259"/>
<path d="M106.703 393.171C110.262 391.116 114.645 391.116 118.203 393.171L155.016 414.424C158.574 416.478 160.766 420.275 160.766 424.383V466.891C160.766 470.999 158.574 474.796 155.016 476.85L118.203 498.104C114.645 500.158 110.262 500.158 106.703 498.104L69.8911 476.85C66.333 474.796 64.1411 470.999 64.1411 466.891V424.383C64.1411 420.275 66.333 416.478 69.8911 414.424L106.703 393.171Z" stroke="white" stroke-opacity="0.2"/>
</g>
<path d="M276.453 488.738C280.166 486.594 284.741 486.594 288.453 488.738L325.266 509.991C328.979 512.135 331.266 516.096 331.266 520.383V562.891C331.266 567.178 328.979 571.139 325.266 573.283L288.453 594.537C284.741 596.68 280.166 596.68 276.453 594.537L239.641 573.283C235.928 571.139 233.641 567.178 233.641 562.891V520.383C233.641 516.096 235.928 512.135 239.641 509.991L276.453 488.738Z" fill="#150259"/>
<path d="M276.703 489.171C280.262 487.116 284.645 487.116 288.203 489.171L325.016 510.424C328.574 512.478 330.766 516.275 330.766 520.383V562.891C330.766 566.999 328.574 570.796 325.016 572.85L288.203 594.104C284.645 596.158 280.262 596.158 276.703 594.104L239.891 572.85C236.333 570.796 234.141 566.999 234.141 562.891V520.383C234.141 516.275 236.333 512.478 239.891 510.424L276.703 489.171Z" stroke="white" stroke-opacity="0.12"/>
<path d="M162.453 488.738C166.166 486.594 170.741 486.594 174.453 488.738L211.266 509.991C214.979 512.135 217.266 516.096 217.266 520.383V562.891C217.266 567.178 214.979 571.139 211.266 573.283L174.453 594.537C170.741 596.68 166.166 596.68 162.453 594.537L125.641 573.283C121.928 571.139 119.641 567.178 119.641 562.891V520.383C119.641 516.096 121.928 512.135 125.641 509.991L162.453 488.738Z" fill="#150259"/>
<path d="M162.703 489.171C166.262 487.116 170.645 487.116 174.203 489.171L211.016 510.424C214.574 512.478 216.766 516.275 216.766 520.383V562.891C216.766 566.999 214.574 570.796 211.016 572.85L174.203 594.104C170.645 596.158 166.262 596.158 162.703 594.104L125.891 572.85C122.333 570.796 120.141 566.999 120.141 562.891V520.383C120.141 516.275 122.333 512.478 125.891 510.424L162.703 489.171Z" stroke="white" stroke-opacity="0.12"/>
<g filter="url(#filter2_d_3294_94723)">
<path d="M221.09 198.666C224.803 196.523 229.377 196.523 233.09 198.666L269.903 219.92C273.615 222.063 275.903 226.025 275.903 230.312V272.819C275.903 277.107 273.615 281.068 269.903 283.212L233.09 304.465C229.377 306.609 224.803 306.609 221.09 304.465L184.278 283.212C180.565 281.068 178.278 277.107 178.278 272.819V230.312C178.278 226.025 180.565 222.063 184.278 219.92L221.09 198.666Z" fill="#150259"/>
<path d="M221.34 199.099C224.898 197.045 229.282 197.045 232.84 199.099L269.653 220.353C273.211 222.407 275.403 226.204 275.403 230.312V272.819C275.403 276.928 273.211 280.724 269.653 282.779L232.84 304.032C229.282 306.087 224.898 306.087 221.34 304.032L184.528 282.779C180.97 280.724 178.778 276.928 178.778 272.819V230.312C178.778 226.204 180.97 222.407 184.528 220.353L221.34 199.099Z" stroke="white" stroke-opacity="0.2"/>
</g>
<g filter="url(#filter3_d_3294_94723)">
<path d="M108.364 198.666C112.076 196.523 116.651 196.523 120.364 198.666L157.176 219.92C160.889 222.063 163.176 226.025 163.176 230.312V272.819C163.176 277.107 160.889 281.068 157.176 283.212L120.364 304.465C116.651 306.609 112.076 306.609 108.364 304.465L71.5513 283.212C67.8385 281.068 65.5513 277.107 65.5513 272.819V230.312C65.5513 226.025 67.8385 222.063 71.5513 219.92L108.364 198.666Z" fill="#150259"/>
<path d="M108.614 199.099C112.172 197.045 116.556 197.045 120.114 199.099L156.926 220.353C160.484 222.407 162.676 226.204 162.676 230.312V272.819C162.676 276.928 160.484 280.724 156.926 282.779L120.114 304.032C116.556 306.087 112.172 306.087 108.614 304.032L71.8013 282.779C68.2432 280.724 66.0513 276.928 66.0513 272.819V230.312C66.0513 226.204 68.2432 222.407 71.8013 220.353L108.614 199.099Z" stroke="white" stroke-opacity="0.2"/>
</g>
<path d="M164.727 100.464C168.44 98.3205 173.014 98.3205 176.727 100.464L213.539 121.718C217.252 123.861 219.539 127.823 219.539 132.11V174.617C219.539 178.904 217.252 182.866 213.539 185.01L176.727 206.263C173.014 208.407 168.44 208.407 164.727 206.263L127.915 185.01C124.202 182.866 121.915 178.904 121.915 174.617V132.11C121.915 127.823 124.202 123.861 127.915 121.718L164.727 100.464Z" fill="#150259"/>
<path d="M164.977 100.897C168.535 98.8428 172.919 98.8428 176.477 100.897L213.289 122.151C216.847 124.205 219.039 128.001 219.039 132.11V174.617C219.039 178.726 216.847 182.522 213.289 184.577L176.477 205.83C172.919 207.884 168.535 207.884 164.977 205.83L128.165 184.577C124.606 182.522 122.415 178.726 122.415 174.617V132.11C122.415 128.001 124.606 124.205 128.165 122.151L164.977 100.897Z" stroke="white" stroke-opacity="0.12"/>
<path d="M108.364 3.4641C112.076 1.32051 116.651 1.32051 120.364 3.4641L157.176 24.7177C160.889 26.8613 163.176 30.8228 163.176 35.11V77.6172C163.176 81.9044 160.889 85.866 157.176 88.0096L120.364 109.263C116.651 111.407 112.076 111.407 108.364 109.263L71.5513 88.0096C67.8385 85.866 65.5513 81.9044 65.5513 77.6173V35.11C65.5513 30.8228 67.8385 26.8613 71.5513 24.7177L108.364 3.4641Z" fill="#150259"/>
<path d="M108.614 3.89711C112.172 1.84284 116.556 1.84284 120.114 3.89711L156.926 25.1507C160.484 27.205 162.676 31.0015 162.676 35.11V77.6172C162.676 81.7258 160.484 85.5223 156.926 87.5765L120.114 108.83C116.556 110.884 112.172 110.884 108.614 108.83L71.8013 87.5765C68.2432 85.5223 66.0513 81.7258 66.0513 77.6173V35.11C66.0513 31.0015 68.2432 27.205 71.8013 25.1507L108.614 3.89711Z" stroke="white" stroke-opacity="0.12"/>
<path d="M221.364 3.4641C225.076 1.32051 229.651 1.32051 233.364 3.4641L270.176 24.7177C273.889 26.8613 276.176 30.8228 276.176 35.11V77.6172C276.176 81.9044 273.889 85.866 270.176 88.0096L233.364 109.263C229.651 111.407 225.076 111.407 221.364 109.263L184.551 88.0096C180.838 85.866 178.551 81.9044 178.551 77.6173V35.11C178.551 30.8228 180.838 26.8613 184.551 24.7177L221.364 3.4641Z" fill="#150259"/>
<path d="M221.614 3.89711C225.172 1.84284 229.556 1.84284 233.114 3.89711L269.926 25.1507C273.484 27.205 275.676 31.0015 275.676 35.11V77.6172C275.676 81.7258 273.484 85.5223 269.926 87.5765L233.114 108.83C229.556 110.884 225.172 110.884 221.614 108.83L184.801 87.5765C181.243 85.5223 179.051 81.7258 179.051 77.6173V35.11C179.051 31.0015 181.243 27.205 184.801 25.1507L221.614 3.89711Z" stroke="white" stroke-opacity="0.12"/>
<g filter="url(#filter4_d_3294_94723)">
<path d="M277.364 101.464C281.076 99.3205 285.651 99.3205 289.364 101.464L326.176 122.718C329.889 124.861 332.176 128.823 332.176 133.11V175.617C332.176 179.904 329.889 183.866 326.176 186.01L289.364 207.263C285.651 209.407 281.076 209.407 277.364 207.263L240.551 186.01C236.838 183.866 234.551 179.904 234.551 175.617V133.11C234.551 128.823 236.838 124.861 240.551 122.718L277.364 101.464Z" fill="#150259"/>
<path d="M277.614 101.897C281.172 99.8428 285.556 99.8428 289.114 101.897L325.926 123.151C329.484 125.205 331.676 129.001 331.676 133.11V175.617C331.676 179.726 329.484 183.522 325.926 185.577L289.114 206.83C285.556 208.884 281.172 208.884 277.614 206.83L240.801 185.577C237.243 183.522 235.051 179.726 235.051 175.617V133.11C235.051 129.001 237.243 125.205 240.801 123.151L277.614 101.897Z" stroke="white" stroke-opacity="0.2"/>
</g>
<defs>
<filter id="filter0_d_3294_94723" x="104.641" y="278.13" width="129.625" height="141.015" filterUnits="userSpaceOnUse" color-interpolation-filters="sRGB">
<feFlood flood-opacity="0" result="BackgroundImageFix"/>
<feColorMatrix in="SourceAlpha" type="matrix" values="0 0 0 0 0 0 0 0 0 0 0 0 0 0 0 0 0 0 127 0" result="hardAlpha"/>
<feOffset/>
<feGaussianBlur stdDeviation="8"/>
<feComposite in2="hardAlpha" operator="out"/>
<feColorMatrix type="matrix" values="0 0 0 0 1 0 0 0 0 1 0 0 0 0 1 0 0 0 0.2 0"/>
<feBlend mode="normal" in2="BackgroundImageFix" result="effect1_dropShadow_3294_94723"/>
<feBlend mode="normal" in="SourceGraphic" in2="effect1_dropShadow_3294_94723" result="shape"/>
</filter>
<filter id="filter1_d_3294_94723" x="47.6406" y="375.13" width="129.625" height="141.015" filterUnits="userSpaceOnUse" color-interpolation-filters="sRGB">
<feFlood flood-opacity="0" result="BackgroundImageFix"/>
<feColorMatrix in="SourceAlpha" type="matrix" values="0 0 0 0 0 0 0 0 0 0 0 0 0 0 0 0 0 0 127 0" result="hardAlpha"/>
<feOffset/>
<feGaussianBlur stdDeviation="8"/>
<feComposite in2="hardAlpha" operator="out"/>
<feColorMatrix type="matrix" values="0 0 0 0 1 0 0 0 0 1 0 0 0 0 1 0 0 0 0.2 0"/>
<feBlend mode="normal" in2="BackgroundImageFix" result="effect1_dropShadow_3294_94723"/>
<feBlend mode="normal" in="SourceGraphic" in2="effect1_dropShadow_3294_94723" result="shape"/>
</filter>
<filter id="filter2_d_3294_94723" x="162.277" y="181.059" width="129.625" height="141.015" filterUnits="userSpaceOnUse" color-interpolation-filters="sRGB">
<feFlood flood-opacity="0" result="BackgroundImageFix"/>
<feColorMatrix in="SourceAlpha" type="matrix" values="0 0 0 0 0 0 0 0 0 0 0 0 0 0 0 0 0 0 127 0" result="hardAlpha"/>
<feOffset/>
<feGaussianBlur stdDeviation="8"/>
<feComposite in2="hardAlpha" operator="out"/>
<feColorMatrix type="matrix" values="0 0 0 0 1 0 0 0 0 1 0 0 0 0 1 0 0 0 0.2 0"/>
<feBlend mode="normal" in2="BackgroundImageFix" result="effect1_dropShadow_3294_94723"/>
<feBlend mode="normal" in="SourceGraphic" in2="effect1_dropShadow_3294_94723" result="shape"/>
</filter>
<filter id="filter3_d_3294_94723" x="49.5508" y="181.059" width="129.625" height="141.015" filterUnits="userSpaceOnUse" color-interpolation-filters="sRGB">
<feFlood flood-opacity="0" result="BackgroundImageFix"/>
<feColorMatrix in="SourceAlpha" type="matrix" values="0 0 0 0 0 0 0 0 0 0 0 0 0 0 0 0 0 0 127 0" result="hardAlpha"/>
<feOffset/>
<feGaussianBlur stdDeviation="8"/>
<feComposite in2="hardAlpha" operator="out"/>
<feColorMatrix type="matrix" values="0 0 0 0 1 0 0 0 0 1 0 0 0 0 1 0 0 0 0.2 0"/>
<feBlend mode="normal" in2="BackgroundImageFix" result="effect1_dropShadow_3294_94723"/>
<feBlend mode="normal" in="SourceGraphic" in2="effect1_dropShadow_3294_94723" result="shape"/>
</filter>
<filter id="filter4_d_3294_94723" x="218.551" y="83.8564" width="129.625" height="141.015" filterUnits="userSpaceOnUse" color-interpolation-filters="sRGB">
<feFlood flood-opacity="0" result="BackgroundImageFix"/>
<feColorMatrix in="SourceAlpha" type="matrix" values="0 0 0 0 0 0 0 0 0 0 0 0 0 0 0 0 0 0 127 0" result="hardAlpha"/>
<feOffset/>
<feGaussianBlur stdDeviation="8"/>
<feComposite in2="hardAlpha" operator="out"/>
<feColorMatrix type="matrix" values="0 0 0 0 1 0 0 0 0 1 0 0 0 0 1 0 0 0 0.2 0"/>
<feBlend mode="normal" in2="BackgroundImageFix" result="effect1_dropShadow_3294_94723"/>
<feBlend mode="normal" in="SourceGraphic" in2="effect1_dropShadow_3294_94723" result="shape"/>
</filter>
</defs>
</svg>
