<svg width="334" height="630" viewBox="0 0 334 630" fill="none" xmlns="http://www.w3.org/2000/svg">
<path d="M-40 60.5359C-43.7128 62.6795 -48.2872 62.6795 -52 60.5359L-86.7654 40.4641C-90.4782 38.3205 -92.7654 34.359 -92.7654 30.0718L-92.7654 -10.0718C-92.7654 -14.359 -90.4782 -18.3205 -86.7654 -20.4641L-52 -40.5359C-48.2872 -42.6795 -43.7128 -42.6795 -40 -40.5359L-5.23462 -20.4641C-1.52181 -18.3205 0.76538 -14.359 0.76538 -10.0718L0.765376 30.0718C0.765376 34.359 -1.52181 38.3205 -5.23462 40.4641L-40 60.5359Z" fill="#150259"/>
<path d="M-40.25 60.1029C-43.8081 62.1572 -48.1919 62.1572 -51.75 60.1029L-86.5154 40.0311C-90.0735 37.9768 -92.2654 34.1803 -92.2654 30.0718L-92.2654 -10.0718C-92.2654 -14.1804 -90.0735 -17.9768 -86.5154 -20.0311L-51.75 -40.1029C-48.1919 -42.1572 -43.8081 -42.1572 -40.25 -40.1029L-5.48462 -20.0311C-1.92651 -17.9768 0.26538 -14.1804 0.26538 -10.0718L0.265376 30.0718C0.265376 34.1803 -1.92651 37.9768 -5.48462 40.0311L-40.25 60.1029Z" stroke="white" stroke-opacity="0.12"/>
<path d="M14 153.536C10.2872 155.679 5.71281 155.679 2 153.536L-32.7654 133.464C-36.4782 131.321 -38.7654 127.359 -38.7654 123.072L-38.7654 82.9282C-38.7654 78.641 -36.4782 74.6795 -32.7654 72.5359L2.00001 52.4641C5.71282 50.3205 10.2872 50.3205 14 52.4641L48.7654 72.5359C52.4782 74.6795 54.7654 78.641 54.7654 82.9282L54.7654 123.072C54.7654 127.359 52.4782 131.321 48.7654 133.464L14 153.536Z" fill="#150259"/>
<path d="M13.75 153.103C10.1919 155.157 5.80811 155.157 2.25 153.103L-32.5154 133.031C-36.0735 130.977 -38.2654 127.18 -38.2654 123.072L-38.2654 82.9282C-38.2654 78.8196 -36.0735 75.0232 -32.5154 72.9689L2.25001 52.8971C5.80812 50.8428 10.1919 50.8428 13.75 52.8971L48.5154 72.9689C52.0735 75.0232 54.2654 78.8196 54.2654 82.9282L54.2654 123.072C54.2654 127.18 52.0735 130.977 48.5154 133.031L13.75 153.103Z" stroke="white" stroke-opacity="0.12"/>
<g filter="url(#filter0_d_3294_94737)">
<path d="M121 154.536C117.287 156.679 112.713 156.679 109 154.536L74.2346 134.464C70.5218 132.321 68.2346 128.359 68.2346 124.072L68.2346 83.9282C68.2346 79.641 70.5218 75.6795 74.2346 73.5359L109 53.4641C112.713 51.3205 117.287 51.3205 121 53.4641L155.765 73.5359C159.478 75.6795 161.765 79.641 161.765 83.9282L161.765 124.072C161.765 128.359 159.478 132.321 155.765 134.464L121 154.536Z" fill="#150259"/>
<path d="M120.75 154.103C117.192 156.157 112.808 156.157 109.25 154.103L74.4846 134.031C70.9265 131.977 68.7346 128.18 68.7346 124.072L68.7346 83.9282C68.7346 79.8196 70.9265 76.0232 74.4846 73.9689L109.25 53.8971C112.808 51.8428 117.192 51.8428 120.75 53.8971L155.515 73.9689C159.073 76.0232 161.265 79.8196 161.265 83.9282L161.265 124.072C161.265 128.18 159.073 131.977 155.515 134.031L120.75 154.103Z" stroke="white" stroke-opacity="0.2"/>
</g>
<g filter="url(#filter1_d_3294_94737)">
<path d="M177 247.036C173.287 249.179 168.713 249.179 165 247.036L130.235 226.964C126.522 224.821 124.235 220.859 124.235 216.572L124.235 176.428C124.235 172.141 126.522 168.179 130.235 166.036L165 145.964C168.713 143.821 173.287 143.821 177 145.964L211.765 166.036C215.478 168.179 217.765 172.141 217.765 176.428L217.765 216.572C217.765 220.859 215.478 224.821 211.765 226.964L177 247.036Z" fill="#150259"/>
<path d="M176.75 246.603C173.192 248.657 168.808 248.657 165.25 246.603L130.485 226.531C126.927 224.477 124.735 220.68 124.735 216.572L124.735 176.428C124.735 172.32 126.927 168.523 130.485 166.469L165.25 146.397C168.808 144.343 173.192 144.343 176.75 146.397L211.515 166.469C215.073 168.523 217.265 172.32 217.265 176.428L217.265 216.572C217.265 220.68 215.073 224.477 211.515 226.531L176.75 246.603Z" stroke="white" stroke-opacity="0.2"/>
</g>
<path d="M69 247.036C65.2872 249.179 60.7128 249.179 57 247.036L22.2346 226.964C18.5218 224.821 16.2346 220.859 16.2346 216.572L16.2346 176.428C16.2346 172.141 18.5218 168.179 22.2346 166.036L57 145.964C60.7128 143.821 65.2872 143.821 69 145.964L103.765 166.036C107.478 168.179 109.765 172.141 109.765 176.428L109.765 216.572C109.765 220.859 107.478 224.821 103.765 226.964L69 247.036Z" fill="#150259"/>
<path d="M68.75 246.603C65.1919 248.657 60.8081 248.657 57.25 246.603L22.4846 226.531C18.9265 224.477 16.7346 220.68 16.7346 216.572L16.7346 176.428C16.7346 172.32 18.9265 168.523 22.4846 166.469L57.25 146.397C60.8081 144.343 65.1919 144.343 68.75 146.397L103.515 166.469C107.073 168.523 109.265 172.32 109.265 176.428L109.265 216.572C109.265 220.68 107.073 224.477 103.515 226.531L68.75 246.603Z" stroke="white" stroke-opacity="0.12"/>
<g filter="url(#filter2_d_3294_94737)">
<path d="M123 341.536C119.287 343.679 114.713 343.679 111 341.536L76.2346 321.464C72.5218 319.321 70.2346 315.359 70.2346 311.072L70.2346 270.928C70.2346 266.641 72.5218 262.679 76.2346 260.536L111 240.464C114.713 238.321 119.287 238.321 123 240.464L157.765 260.536C161.478 262.679 163.765 266.641 163.765 270.928L163.765 311.072C163.765 315.359 161.478 319.321 157.765 321.464L123 341.536Z" fill="#150259"/>
<path d="M122.75 341.103C119.192 343.157 114.808 343.157 111.25 341.103L76.4846 321.031C72.9265 318.977 70.7346 315.18 70.7346 311.072L70.7346 270.928C70.7346 266.82 72.9265 263.023 76.4846 260.969L111.25 240.897C114.808 238.843 119.192 238.843 122.75 240.897L157.515 260.969C161.073 263.023 163.265 266.82 163.265 270.928L163.265 311.072C163.265 315.18 161.073 318.977 157.515 321.031L122.75 341.103Z" stroke="white" stroke-opacity="0.2"/>
</g>
<g filter="url(#filter3_d_3294_94737)">
<path d="M230 342.535C226.287 344.679 221.713 344.679 218 342.535L183.235 322.463C179.522 320.32 177.235 316.358 177.235 312.071L177.235 271.927C177.235 267.64 179.522 263.679 183.235 261.535L218 241.463C221.713 239.32 226.287 239.32 230 241.463L264.765 261.535C268.478 263.679 270.765 267.64 270.765 271.927L270.765 312.071C270.765 316.358 268.478 320.32 264.765 322.463L230 342.535Z" fill="#150259"/>
<path d="M229.75 342.102C226.192 344.156 221.808 344.156 218.25 342.102L183.485 322.03C179.927 319.976 177.735 316.179 177.735 312.071L177.735 271.927C177.735 267.819 179.927 264.022 183.485 261.968L218.25 241.896C221.808 239.842 226.192 239.842 229.75 241.896L264.515 261.968C268.073 264.022 270.265 267.819 270.265 271.927L270.265 312.071C270.265 316.179 268.073 319.976 264.515 322.03L229.75 342.102Z" stroke="white" stroke-opacity="0.2"/>
</g>
<path d="M286 438.536C282.287 440.679 277.713 440.679 274 438.536L239.235 418.464C235.522 416.321 233.235 412.359 233.235 408.072L233.235 367.928C233.235 363.641 235.522 359.679 239.235 357.536L274 337.464C277.713 335.321 282.287 335.321 286 337.464L320.765 357.536C324.478 359.679 326.765 363.641 326.765 367.928L326.765 408.072C326.765 412.359 324.478 416.321 320.765 418.464L286 438.536Z" fill="#150259"/>
<path d="M285.75 438.103C282.192 440.157 277.808 440.157 274.25 438.103L239.485 418.031C235.927 415.977 233.735 412.18 233.735 408.072L233.735 367.928C233.735 363.82 235.927 360.023 239.485 357.969L274.25 337.897C277.808 335.843 282.192 335.843 285.75 337.897L320.515 357.969C324.073 360.023 326.265 363.82 326.265 367.928L326.265 408.072C326.265 412.18 324.073 415.977 320.515 418.031L285.75 438.103Z" stroke="white" stroke-opacity="0.12"/>
<path d="M15 345.536C11.2872 347.679 6.71281 347.679 3 345.536L-31.7654 325.464C-35.4782 323.321 -37.7654 319.359 -37.7654 315.072L-37.7654 274.928C-37.7654 270.641 -35.4782 266.679 -31.7654 264.536L3.00001 244.464C6.71282 242.321 11.2872 242.321 15 244.464L49.7654 264.536C53.4782 266.679 55.7654 270.641 55.7654 274.928L55.7654 315.072C55.7654 319.359 53.4782 323.321 49.7654 325.464L15 345.536Z" fill="#150259"/>
<path d="M14.75 345.103C11.1919 347.157 6.80811 347.157 3.25 345.103L-31.5154 325.031C-35.0735 322.977 -37.2654 319.18 -37.2654 315.072L-37.2654 274.928C-37.2654 270.82 -35.0735 267.023 -31.5154 264.969L3.25001 244.897C6.80812 242.843 11.1919 242.843 14.75 244.897L49.5154 264.969C53.0735 267.023 55.2654 270.82 55.2654 274.928L55.2654 315.072C55.2654 319.18 53.0735 322.977 49.5154 325.031L14.75 345.103Z" stroke="white" stroke-opacity="0.12"/>
<path d="M123 533.036C119.287 535.179 114.713 535.179 111 533.036L76.2346 512.964C72.5218 510.821 70.2346 506.859 70.2346 502.572L70.2346 462.428C70.2346 458.141 72.5218 454.179 76.2346 452.036L111 431.964C114.713 429.821 119.287 429.821 123 431.964L157.765 452.036C161.478 454.179 163.765 458.141 163.765 462.428L163.765 502.572C163.765 506.859 161.478 510.821 157.765 512.964L123 533.036Z" fill="#150259"/>
<path d="M122.75 532.603C119.192 534.657 114.808 534.657 111.25 532.603L76.4846 512.531C72.9265 510.477 70.7346 506.68 70.7346 502.572L70.7346 462.428C70.7346 458.32 72.9265 454.523 76.4846 452.469L111.25 432.397C114.808 430.343 119.192 430.343 122.75 432.397L157.515 452.469C161.073 454.523 163.265 458.32 163.265 462.428L163.265 502.572C163.265 506.68 161.073 510.477 157.515 512.531L122.75 532.603Z" stroke="white" stroke-opacity="0.12"/>
<path d="M68 626.036C64.2872 628.179 59.7128 628.179 56 626.036L21.2346 605.964C17.5218 603.821 15.2346 599.859 15.2346 595.572L15.2346 555.428C15.2346 551.141 17.5218 547.179 21.2346 545.036L56 524.964C59.7128 522.821 64.2872 522.821 68 524.964L102.765 545.036C106.478 547.179 108.765 551.141 108.765 555.428L108.765 595.572C108.765 599.859 106.478 603.821 102.765 605.964L68 626.036Z" fill="#150259"/>
<path d="M67.75 625.603C64.1919 627.657 59.8081 627.657 56.25 625.603L21.4846 605.531C17.9265 603.477 15.7346 599.68 15.7346 595.572L15.7346 555.428C15.7346 551.32 17.9265 547.523 21.4846 545.469L56.25 525.397C59.8081 523.343 64.1919 523.343 67.75 525.397L102.515 545.469C106.073 547.523 108.265 551.32 108.265 555.428L108.265 595.572C108.265 599.68 106.073 603.477 102.515 605.531L67.75 625.603Z" stroke="white" stroke-opacity="0.12"/>
<path d="M15 533.036C11.2872 535.179 6.71281 535.179 3 533.036L-31.7654 512.964C-35.4782 510.821 -37.7654 506.859 -37.7654 502.572L-37.7654 462.428C-37.7654 458.141 -35.4782 454.179 -31.7654 452.036L3.00001 431.964C6.71282 429.821 11.2872 429.821 15 431.964L49.7654 452.036C53.4782 454.179 55.7654 458.141 55.7654 462.428L55.7654 502.572C55.7654 506.859 53.4782 510.821 49.7654 512.964L15 533.036Z" fill="#150259"/>
<path d="M14.75 532.603C11.1919 534.657 6.80811 534.657 3.25 532.603L-31.5154 512.531C-35.0735 510.477 -37.2654 506.68 -37.2654 502.572L-37.2654 462.428C-37.2654 458.32 -35.0735 454.523 -31.5154 452.469L3.25001 432.397C6.80812 430.343 11.1919 430.343 14.75 432.397L49.5154 452.469C53.0735 454.523 55.2654 458.32 55.2654 462.428L55.2654 502.572C55.2654 506.68 53.0735 510.477 49.5154 512.531L14.75 532.603Z" stroke="white" stroke-opacity="0.12"/>
<g filter="url(#filter4_d_3294_94737)">
<path d="M69 437.536C65.2872 439.679 60.7128 439.679 57 437.536L22.2346 417.464C18.5218 415.321 16.2346 411.359 16.2346 407.072L16.2346 366.928C16.2346 362.641 18.5218 358.679 22.2346 356.536L57 336.464C60.7128 334.321 65.2872 334.321 69 336.464L103.765 356.536C107.478 358.679 109.765 362.641 109.765 366.928L109.765 407.072C109.765 411.359 107.478 415.321 103.765 417.464L69 437.536Z" fill="#150259"/>
<path d="M68.75 437.103C65.1919 439.157 60.8081 439.157 57.25 437.103L22.4846 417.031C18.9265 414.977 16.7346 411.18 16.7346 407.072L16.7346 366.928C16.7346 362.82 18.9265 359.023 22.4846 356.969L57.25 336.897C60.8081 334.843 65.1919 334.843 68.75 336.897L103.515 356.969C107.073 359.023 109.265 362.82 109.265 366.928L109.265 407.072C109.265 411.18 107.073 414.977 103.515 417.031L68.75 437.103Z" stroke="white" stroke-opacity="0.2"/>
</g>
<path d="M176 438.536C172.287 440.679 167.713 440.679 164 438.536L129.235 418.464C125.522 416.321 123.235 412.359 123.235 408.072L123.235 367.928C123.235 363.641 125.522 359.679 129.235 357.536L164 337.464C167.713 335.321 172.287 335.321 176 337.464L210.765 357.536C214.478 359.679 216.765 363.641 216.765 367.928L216.765 408.072C216.765 412.359 214.478 416.321 210.765 418.464L176 438.536Z" fill="#150259"/>
<path d="M175.75 438.103C172.192 440.157 167.808 440.157 164.25 438.103L129.485 418.031C125.927 415.977 123.735 412.18 123.735 408.072L123.735 367.928C123.735 363.82 125.927 360.023 129.485 357.969L164.25 337.897C167.808 335.843 172.192 335.843 175.75 337.897L210.515 357.969C214.073 360.023 216.265 363.82 216.265 367.928L216.265 408.072C216.265 412.18 214.073 415.977 210.515 418.031L175.75 438.103Z" stroke="white" stroke-opacity="0.12"/>
<path d="M232 533.036C228.287 535.179 223.713 535.179 220 533.036L185.235 512.964C181.522 510.821 179.235 506.859 179.235 502.572L179.235 462.428C179.235 458.141 181.522 454.179 185.235 452.036L220 431.964C223.713 429.821 228.287 429.821 232 431.964L266.765 452.036C270.478 454.179 272.765 458.141 272.765 462.428L272.765 502.572C272.765 506.859 270.478 510.821 266.765 512.964L232 533.036Z" fill="#150259"/>
<path d="M231.75 532.603C228.192 534.657 223.808 534.657 220.25 532.603L185.485 512.531C181.927 510.477 179.735 506.68 179.735 502.572L179.735 462.428C179.735 458.32 181.927 454.523 185.485 452.469L220.25 432.397C223.808 430.343 228.192 430.343 231.75 432.397L266.515 452.469C270.073 454.523 272.265 458.32 272.265 462.428L272.265 502.572C272.265 506.68 270.073 510.477 266.515 512.531L231.75 532.603Z" stroke="white" stroke-opacity="0.12"/>
<defs>
<filter id="filter0_d_3294_94737" x="52.2344" y="35.8564" width="125.531" height="136.287" filterUnits="userSpaceOnUse" color-interpolation-filters="sRGB">
<feFlood flood-opacity="0" result="BackgroundImageFix"/>
<feColorMatrix in="SourceAlpha" type="matrix" values="0 0 0 0 0 0 0 0 0 0 0 0 0 0 0 0 0 0 127 0" result="hardAlpha"/>
<feOffset/>
<feGaussianBlur stdDeviation="8"/>
<feComposite in2="hardAlpha" operator="out"/>
<feColorMatrix type="matrix" values="0 0 0 0 1 0 0 0 0 1 0 0 0 0 1 0 0 0 0.2 0"/>
<feBlend mode="normal" in2="BackgroundImageFix" result="effect1_dropShadow_3294_94737"/>
<feBlend mode="normal" in="SourceGraphic" in2="effect1_dropShadow_3294_94737" result="shape"/>
</filter>
<filter id="filter1_d_3294_94737" x="108.234" y="128.356" width="125.531" height="136.287" filterUnits="userSpaceOnUse" color-interpolation-filters="sRGB">
<feFlood flood-opacity="0" result="BackgroundImageFix"/>
<feColorMatrix in="SourceAlpha" type="matrix" values="0 0 0 0 0 0 0 0 0 0 0 0 0 0 0 0 0 0 127 0" result="hardAlpha"/>
<feOffset/>
<feGaussianBlur stdDeviation="8"/>
<feComposite in2="hardAlpha" operator="out"/>
<feColorMatrix type="matrix" values="0 0 0 0 1 0 0 0 0 1 0 0 0 0 1 0 0 0 0.2 0"/>
<feBlend mode="normal" in2="BackgroundImageFix" result="effect1_dropShadow_3294_94737"/>
<feBlend mode="normal" in="SourceGraphic" in2="effect1_dropShadow_3294_94737" result="shape"/>
</filter>
<filter id="filter2_d_3294_94737" x="54.2344" y="222.856" width="125.531" height="136.287" filterUnits="userSpaceOnUse" color-interpolation-filters="sRGB">
<feFlood flood-opacity="0" result="BackgroundImageFix"/>
<feColorMatrix in="SourceAlpha" type="matrix" values="0 0 0 0 0 0 0 0 0 0 0 0 0 0 0 0 0 0 127 0" result="hardAlpha"/>
<feOffset/>
<feGaussianBlur stdDeviation="8"/>
<feComposite in2="hardAlpha" operator="out"/>
<feColorMatrix type="matrix" values="0 0 0 0 1 0 0 0 0 1 0 0 0 0 1 0 0 0 0.2 0"/>
<feBlend mode="normal" in2="BackgroundImageFix" result="effect1_dropShadow_3294_94737"/>
<feBlend mode="normal" in="SourceGraphic" in2="effect1_dropShadow_3294_94737" result="shape"/>
</filter>
<filter id="filter3_d_3294_94737" x="161.234" y="223.855" width="125.531" height="136.287" filterUnits="userSpaceOnUse" color-interpolation-filters="sRGB">
<feFlood flood-opacity="0" result="BackgroundImageFix"/>
<feColorMatrix in="SourceAlpha" type="matrix" values="0 0 0 0 0 0 0 0 0 0 0 0 0 0 0 0 0 0 127 0" result="hardAlpha"/>
<feOffset/>
<feGaussianBlur stdDeviation="8"/>
<feComposite in2="hardAlpha" operator="out"/>
<feColorMatrix type="matrix" values="0 0 0 0 1 0 0 0 0 1 0 0 0 0 1 0 0 0 0.2 0"/>
<feBlend mode="normal" in2="BackgroundImageFix" result="effect1_dropShadow_3294_94737"/>
<feBlend mode="normal" in="SourceGraphic" in2="effect1_dropShadow_3294_94737" result="shape"/>
</filter>
<filter id="filter4_d_3294_94737" x="0.234375" y="318.856" width="125.531" height="136.287" filterUnits="userSpaceOnUse" color-interpolation-filters="sRGB">
<feFlood flood-opacity="0" result="BackgroundImageFix"/>
<feColorMatrix in="SourceAlpha" type="matrix" values="0 0 0 0 0 0 0 0 0 0 0 0 0 0 0 0 0 0 127 0" result="hardAlpha"/>
<feOffset/>
<feGaussianBlur stdDeviation="8"/>
<feComposite in2="hardAlpha" operator="out"/>
<feColorMatrix type="matrix" values="0 0 0 0 1 0 0 0 0 1 0 0 0 0 1 0 0 0 0.2 0"/>
<feBlend mode="normal" in2="BackgroundImageFix" result="effect1_dropShadow_3294_94737"/>
<feBlend mode="normal" in="SourceGraphic" in2="effect1_dropShadow_3294_94737" result="shape"/>
</filter>
</defs>
</svg>
